<svg width="54" height="72" viewBox="0 0 54 72" fill="none" xmlns="http://www.w3.org/2000/svg">
<path id="vector_hoja" d="M14.953 7.31418V18.2225L20.2473 25.3209L23.1449 12.0405C23.1538 11.9776 23.1806 11.9327 23.2254 11.8788C23.2611 11.8338 23.3148 11.7979 23.3774 11.7799C23.44 11.762 23.4937 11.762 23.5563 11.7799C23.6189 11.7889 23.6636 11.8159 23.7172 11.8608C23.7619 11.9057 23.7977 11.9506 23.8156 12.0135C23.8335 12.0764 23.8335 12.1304 23.8156 12.1933L20.7928 26.0487L25.3717 32.1768L29.0294 17.7372C29.0294 17.7372 29.0652 17.6564 29.092 17.6204C29.1189 17.5845 29.1546 17.5575 29.1904 17.5396C29.2262 17.5216 29.2709 17.5036 29.3156 17.4946C29.3603 17.4946 29.4051 17.4946 29.4498 17.4946C29.4945 17.5036 29.5303 17.5216 29.566 17.5486C29.6018 17.5755 29.6286 17.6025 29.6555 17.6474C29.6823 17.6923 29.6912 17.7283 29.7002 17.7732C29.7002 17.8181 29.7002 17.863 29.7002 17.908L25.9083 32.8776L29.4677 37.6399L34.4669 21.6908C34.4669 21.6908 34.5026 21.61 34.5295 21.574C34.5563 21.5381 34.5921 21.5111 34.6368 21.4931C34.6726 21.4752 34.7173 21.4572 34.762 21.4572C34.8067 21.4572 34.8514 21.4572 34.8961 21.4662C34.9408 21.4842 34.9766 21.5021 35.0124 21.5291C35.0482 21.556 35.075 21.592 35.1018 21.6279C35.1197 21.6639 35.1376 21.7088 35.1376 21.7537C35.1376 21.7986 35.1376 21.8436 35.1287 21.8885L29.9774 38.3048L33.814 43.4355L39.4214 29.0229C39.4929 28.8432 39.6896 28.7533 39.8685 28.8342C39.9043 28.8522 39.9401 28.8702 39.9758 28.8971C40.0116 28.9241 40.0295 28.96 40.0474 28.996C40.0653 29.0319 40.0742 29.0768 40.0831 29.1128C40.0831 29.1577 40.0831 29.1936 40.0742 29.2386V29.2655L34.3059 44.0734L37.8474 48.8088L43.2669 35.735C43.2669 35.735 43.3116 35.6541 43.3384 35.6272C43.3742 35.5912 43.41 35.5733 43.4458 35.5553C43.4815 35.5373 43.5352 35.5283 43.5799 35.5283C43.6246 35.5283 43.6693 35.5373 43.7141 35.5553C43.7588 35.5733 43.7945 35.6002 43.8214 35.6272C43.8482 35.6631 43.875 35.6991 43.8929 35.735C43.9108 35.7799 43.9197 35.8159 43.9197 35.8698C43.9197 35.9237 43.9108 35.9596 43.8929 36.0046L38.3213 49.4557L42.9449 55.6466C42.9807 55.6916 43.0075 55.7455 43.0075 55.8084C43.0075 55.8713 43.0075 55.9252 42.9807 55.9881C42.9539 56.042 42.9181 56.0869 42.8734 56.1229C42.8287 56.1588 42.775 56.1858 42.7124 56.1858C42.6498 56.1858 42.5962 56.1858 42.5336 56.1588C42.4799 56.1319 42.4352 56.0959 42.3905 56.051L37.7669 49.8601L23.288 51.3966C23.2254 51.3966 23.1717 51.3965 23.1091 51.3696C23.0554 51.3426 23.0107 51.3067 22.975 51.2618C22.9392 51.2168 22.9213 51.1539 22.9124 51.1C22.9124 51.0371 22.9124 50.9832 22.9392 50.9203C22.966 50.8664 23.0018 50.8215 23.0465 50.7855C23.0912 50.7496 23.1538 50.7316 23.2164 50.7226L37.2839 49.2311L34.0018 44.8372L33.966 44.9271L17.3229 47.1195C17.2603 47.1195 17.2066 47.1195 17.144 47.0925C17.0814 47.0656 17.0367 47.0296 17.0009 46.9847C16.9652 46.9398 16.9383 46.8859 16.9294 46.823C16.9294 46.7601 16.9294 46.7062 16.9562 46.6433C16.9831 46.5894 17.0188 46.5354 17.0636 46.4995C17.1083 46.4636 17.1709 46.4366 17.2245 46.4276L33.4652 44.2891L33.501 44.1903L29.6555 39.0506L13.7367 41.7462C13.692 41.7462 13.6473 41.7462 13.6026 41.7462C13.5578 41.7372 13.5221 41.7193 13.4774 41.6923C13.4416 41.6654 13.4058 41.6294 13.3879 41.5935C13.3611 41.5575 13.3432 41.5126 13.3432 41.4677C13.3432 41.4228 13.3432 41.3778 13.3432 41.3329C13.3522 41.288 13.37 41.243 13.3969 41.2071C13.4237 41.1712 13.4595 41.1442 13.4952 41.1173C13.531 41.0903 13.5757 41.0723 13.6204 41.0723L29.1904 38.4306L25.2733 33.1831L8.90743 35.6991C8.86271 35.6991 8.818 35.6991 8.77328 35.6991C8.72856 35.6901 8.69279 35.6721 8.65702 35.6451C8.62125 35.6182 8.58547 35.5822 8.56759 35.5463C8.54076 35.5104 8.53181 35.4654 8.52287 35.4205C8.52287 35.3756 8.52287 35.3307 8.52287 35.2857C8.53181 35.2408 8.5497 35.2049 8.57653 35.1599C8.60336 35.124 8.63913 35.097 8.6749 35.0701C8.71068 35.0431 8.75539 35.0341 8.80011 35.0252L24.8083 32.5632L20.3993 26.6687L7.61962 28.4299C7.55701 28.4299 7.50336 28.4299 7.44075 28.4119C7.38709 28.3939 7.33344 28.349 7.29766 28.3041C7.26189 28.2591 7.23506 28.1962 7.22612 28.1423C7.22612 28.0794 7.22612 28.0255 7.25295 27.9626C7.27978 27.8997 7.31555 27.8548 7.36027 27.8189C7.41392 27.7829 7.46758 27.756 7.53019 27.756L19.9343 26.0487L14.6042 18.9143L5.51798 20.1274C5.45538 20.1274 5.40172 20.1274 5.33912 20.1094C5.28546 20.0824 5.24075 20.0465 5.19603 20.0016C5.16026 19.9566 5.13343 19.8937 5.12449 19.8398C5.12449 19.7769 5.12449 19.723 5.15132 19.6601C5.17815 19.6062 5.21392 19.5523 5.25863 19.5164C5.31229 19.4804 5.36595 19.4535 5.41961 19.4445L14.1213 18.2854L5.82205 7.15244C5.82205 7.15244 5.77733 7.07157 5.76839 7.03563C5.75945 6.99071 5.75945 6.94578 5.76839 6.90085C5.76839 6.85592 5.78628 6.811 5.81311 6.77506C5.83994 6.73911 5.86677 6.70317 5.90254 6.67622C5.93831 6.64926 5.97408 6.63129 6.0188 6.61332C6.06351 6.60433 6.10823 6.59535 6.15295 6.61332C6.19766 6.61332 6.24238 6.63129 6.27815 6.65825C6.31392 6.6852 6.34969 6.71216 6.37652 6.7481L14.2733 17.3239V7.31418C14.2733 7.31418 14.3001 7.23331 14.318 7.18838C14.3359 7.15244 14.3627 7.1165 14.3896 7.08954C14.4253 7.06259 14.4611 7.03563 14.4969 7.01766C14.5326 6.99969 14.5774 6.99071 14.6221 6.99071C14.6668 6.99071 14.7115 6.99071 14.7473 7.01766C14.7831 7.03563 14.8278 7.0536 14.8546 7.08954C14.8904 7.1165 14.9083 7.15244 14.9351 7.18838C14.953 7.22433 14.9619 7.26925 14.9709 7.31418M0.017965 0.0809328C0.017965 0.0809328 -1.05521 36.0315 12.1806 49.1232C25.4164 62.215 45.3328 61.1457 45.3328 61.1457C45.3328 61.1457 50.3588 67.0222 49.9206 69.2955L49.4824 71.5778L53.5604 72.0001C53.5604 72.0001 54.8661 65.1622 51.6734 62.0083C48.4807 58.8454 48.4539 55.2064 48.4539 55.2064C48.4539 55.2064 56.0377 40.1289 37.3018 18.8964C18.566 -2.33614 0.017965 0.0809328 0.017965 0.0809328Z" fill="white"/>
</svg>
